<?xml version="1.0" encoding="UTF-8" standalone="no"?>
<!DOCTYPE svg PUBLIC "-//W3C//DTD SVG 1.1//EN"
 "http://www.w3.org/Graphics/SVG/1.1/DTD/svg11.dtd">
<!-- Generated by graphviz version 2.38.0 (20140413.2041)
 -->
<!-- Title: Control&#45;flow graph for function &#39;main(argc, **argv)&#39;. Pages: 1 -->
<svg width="592pt" height="368pt"
 viewBox="0.00 0.00 592.00 368.00" xmlns="http://www.w3.org/2000/svg" xmlns:xlink="http://www.w3.org/1999/xlink">
<g id="graph0" class="graph" transform="scale(1 1) rotate(0) translate(4 364)">
<title>Control&#45;flow graph for function &#39;main(argc, **argv)&#39;.</title>
<polygon fill="white" stroke="none" points="-4,4 -4,-364 588,-364 588,4 -4,4"/>
<text text-anchor="middle" x="292" y="-7.8" font-family="Times,serif" font-size="14.00">Control&#45;flow graph for function &#39;main(argc, **argv)&#39;.</text>
<!-- Node0x37c2b00 -->
<g id="node1" class="node"><title>Node0x37c2b00</title>
<polygon fill="none" stroke="black" points="262.5,-306.5 262.5,-359.5 321.5,-359.5 321.5,-306.5 262.5,-306.5"/>
<text text-anchor="start" x="270.5" y="-344.3" font-family="Times,serif" font-size="14.00">entry:</text>
<text text-anchor="start" x="270.5" y="-329.3" font-family="Times,serif" font-size="14.00"> argc</text>
<text text-anchor="start" x="270.5" y="-314.3" font-family="Times,serif" font-size="14.00"> argv</text>
</g>
<!-- Node0x2bf0180 -->
<g id="node2" class="node"><title>Node0x2bf0180</title>
<polygon fill="none" stroke="black" points="0,-96.5 0,-269.5 584,-269.5 584,-96.5 0,-96.5"/>
<text text-anchor="start" x="8" y="-254.3" font-family="Times,serif" font-size="14.00">0x10600:</text>
<text text-anchor="start" x="8" y="-239.3" font-family="Times,serif" font-size="14.00"> puts(&quot;Terminator canary blocks the way!&quot;)</text>
<text text-anchor="start" x="8" y="-224.3" font-family="Times,serif" font-size="14.00"> stream = *(IntToPtrCastExpr&lt;ptr&gt;((PtrToIntCastExpr&lt;int32&gt;(&amp;(g1)) + 24)))</text>
<text text-anchor="start" x="8" y="-209.3" font-family="Times,serif" font-size="14.00"> setbuf(IntToPtrCastExpr&lt;ptr&gt;(*(IntToPtrCastExpr&lt;ptr&gt;(stream))), NULL)</text>
<text text-anchor="start" x="8" y="-194.3" font-family="Times,serif" font-size="14.00"> printf(&quot;CHECK&gt; &quot;)</text>
<text text-anchor="start" x="8" y="-179.3" font-family="Times,serif" font-size="14.00"> check()</text>
<text text-anchor="start" x="8" y="-164.3" font-family="Times,serif" font-size="14.00"> puts(&quot;I need your clothes, your boots and your motorcycle.&quot;)</text>
<text text-anchor="start" x="8" y="-149.3" font-family="Times,serif" font-size="14.00"> printf(&quot;FIGHT&gt; &quot;)</text>
<text text-anchor="start" x="8" y="-134.3" font-family="Times,serif" font-size="14.00"> fight()</text>
<text text-anchor="start" x="8" y="-119.3" font-family="Times,serif" font-size="14.00"> puts(&quot;Stay determined...&quot;)</text>
<text text-anchor="start" x="8" y="-104.3" font-family="Times,serif" font-size="14.00"> return 0</text>
</g>
<!-- Node0x37c2b00&#45;&gt;Node0x2bf0180 -->
<g id="edge1" class="edge"><title>Node0x37c2b00&#45;&gt;Node0x2bf0180</title>
<path fill="none" stroke="black" d="M292,-306.22C292,-298.414 292,-289.34 292,-279.729"/>
<polygon fill="black" stroke="black" points="295.5,-279.55 292,-269.55 288.5,-279.55 295.5,-279.55"/>
</g>
<!-- Node0x3019210 -->
<g id="node3" class="node"><title>Node0x3019210</title>
<polygon fill="none" stroke="black" points="265,-23.5 265,-59.5 319,-59.5 319,-23.5 265,-23.5"/>
<text text-anchor="start" x="273" y="-37.8" font-family="Times,serif" font-size="14.00">exit:</text>
</g>
<!-- Node0x2bf0180&#45;&gt;Node0x3019210 -->
<g id="edge2" class="edge"><title>Node0x2bf0180&#45;&gt;Node0x3019210</title>
<path fill="none" stroke="black" d="M292,-96.4343C292,-86.8184 292,-77.6259 292,-69.641"/>
<polygon fill="black" stroke="black" points="295.5,-69.5749 292,-59.5749 288.5,-69.5749 295.5,-69.5749"/>
</g>
</g>
</svg>
