<?xml version="1.0" encoding="UTF-8" standalone="no"?>
<!DOCTYPE svg PUBLIC "-//W3C//DTD SVG 1.1//EN"
 "http://www.w3.org/Graphics/SVG/1.1/DTD/svg11.dtd">
<!-- Generated by graphviz version 2.38.0 (20140413.2041)
 -->
<!-- Title: Control&#45;flow graph for function &#39;fight()&#39;. Pages: 1 -->
<svg width="1025pt" height="503pt"
 viewBox="0.00 0.00 1024.50 503.00" xmlns="http://www.w3.org/2000/svg" xmlns:xlink="http://www.w3.org/1999/xlink">
<g id="graph0" class="graph" transform="scale(1 1) rotate(0) translate(4 499)">
<title>Control&#45;flow graph for function &#39;fight()&#39;.</title>
<polygon fill="white" stroke="none" points="-4,4 -4,-499 1020.5,-499 1020.5,4 -4,4"/>
<text text-anchor="middle" x="508.25" y="-7.8" font-family="Times,serif" font-size="14.00">Control&#45;flow graph for function &#39;fight()&#39;.</text>
<!-- Node0x37bde10 -->
<g id="node1" class="node"><title>Node0x37bde10</title>
<polygon fill="none" stroke="black" points="253,-458.5 253,-494.5 312,-494.5 312,-458.5 253,-458.5"/>
<text text-anchor="start" x="261" y="-472.8" font-family="Times,serif" font-size="14.00">entry:</text>
</g>
<!-- Node0x37c4d90 -->
<g id="node2" class="node"><title>Node0x37c4d90</title>
<polygon fill="none" stroke="black" points="0,-337.5 0,-420.5 565,-420.5 565,-337.5 0,-337.5"/>
<text text-anchor="start" x="8" y="-405.3" font-family="Times,serif" font-size="14.00">v1 = *(IntToPtrCastExpr&lt;ptr&gt;((PtrToIntCastExpr&lt;int32&gt;(&amp;(g1)) + 32)))</text>
<text text-anchor="start" x="8" y="-390.3" font-family="Times,serif" font-size="14.00"> buf</text>
<text text-anchor="start" x="8" y="-375.3" font-family="Times,serif" font-size="14.00"> memset(BitCastExpr&lt;ptr&gt;(&amp;(buf)), 0, 1024)</text>
<text text-anchor="start" x="8" y="-360.3" font-family="Times,serif" font-size="14.00"> result = IntToPtrCastExpr&lt;ptr&gt;(read(0, BitCastExpr&lt;ptr&gt;(&amp;(buf)), 2048))</text>
<text text-anchor="start" x="8" y="-345.3" font-family="Times,serif" font-size="14.00"> v2 = IntToPtrCastExpr&lt;ptr&gt;((PtrToIntCastExpr&lt;int32&gt;(&amp;(g1)) + 32))</text>
</g>
<!-- Node0x37bde10&#45;&gt;Node0x37c4d90 -->
<g id="edge1" class="edge"><title>Node0x37bde10&#45;&gt;Node0x37c4d90</title>
<path fill="none" stroke="black" d="M282.5,-458.427C282.5,-450.622 282.5,-440.921 282.5,-431.032"/>
<polygon fill="black" stroke="black" points="286,-430.73 282.5,-420.73 279,-430.73 286,-430.73"/>
</g>
<!-- Node0x37c8130 -->
<g id="node3" class="node"><title>Node0x37c8130</title>
<polygon fill="none" stroke="black" points="18,-263.5 18,-299.5 547,-299.5 547,-263.5 18,-263.5"/>
<text text-anchor="start" x="26" y="-277.8" font-family="Times,serif" font-size="14.00">if (*(IntToPtrCastExpr&lt;ptr&gt;(v1)) != *(IntToPtrCastExpr&lt;ptr&gt;(*(v2)))):</text>
</g>
<!-- Node0x37c4d90&#45;&gt;Node0x37c8130 -->
<g id="edge2" class="edge"><title>Node0x37c4d90&#45;&gt;Node0x37c8130</title>
<path fill="none" stroke="black" d="M282.5,-337.499C282.5,-328.206 282.5,-318.537 282.5,-309.946"/>
<polygon fill="black" stroke="black" points="286,-309.749 282.5,-299.749 279,-309.749 286,-309.749"/>
</g>
<!-- Node0x2c1b430 -->
<g id="node4" class="node"><title>Node0x2c1b430</title>
<polygon fill="none" stroke="black" points="154,-173.5 154,-211.5 303,-211.5 303,-173.5 154,-173.5"/>
<text text-anchor="start" x="162" y="-196.3" font-family="Times,serif" font-size="14.00">0x105e8:</text>
<text text-anchor="start" x="162" y="-181.3" font-family="Times,serif" font-size="14.00"> __stack_chk_fail()</text>
</g>
<!-- Node0x37c8130&#45;&gt;Node0x2c1b430 -->
<g id="edge3" class="edge"><title>Node0x37c8130&#45;&gt;Node0x2c1b430</title>
<path fill="none" stroke="black" d="M69.3843,-263.439C53.525,-258.676 41.1246,-252.64 34.5,-245 30.1327,-239.963 30.244,-235.131 34.5,-230 48.662,-212.925 98.1125,-203.785 143.539,-198.922"/>
<polygon fill="black" stroke="black" points="144.162,-202.377 153.76,-197.89 143.459,-195.412 144.162,-202.377"/>
<text text-anchor="middle" x="276.5" y="-233.8" font-family="Times,serif" font-size="14.00">*(IntToPtrCastExpr&lt;ptr&gt;(v1)) != *(IntToPtrCastExpr&lt;ptr&gt;(*(v2)))</text>
</g>
<!-- Node0x2be9880 -->
<g id="node5" class="node"><title>Node0x2be9880</title>
<polygon fill="none" stroke="black" points="394,-97.5 394,-135.5 507,-135.5 507,-97.5 394,-97.5"/>
<text text-anchor="start" x="402" y="-120.3" font-family="Times,serif" font-size="14.00">0x105ec:</text>
<text text-anchor="start" x="402" y="-105.3" font-family="Times,serif" font-size="14.00"> return result</text>
</g>
<!-- Node0x37c8130&#45;&gt;Node0x2be9880 -->
<g id="edge4" class="edge"><title>Node0x37c8130&#45;&gt;Node0x2be9880</title>
<path fill="none" stroke="black" d="M482.881,-263.494C499.144,-258.742 511.877,-252.693 518.5,-245 545.393,-213.759 509.748,-170.095 480.767,-142.826"/>
<polygon fill="black" stroke="black" points="482.953,-140.083 473.206,-135.929 478.235,-145.254 482.953,-140.083"/>
<text text-anchor="middle" x="771.5" y="-188.8" font-family="Times,serif" font-size="14.00">*(IntToPtrCastExpr&lt;ptr&gt;(v1)) == *(IntToPtrCastExpr&lt;ptr&gt;(*(v2)))</text>
</g>
<!-- Node0x2c1b430&#45;&gt;Node0x2be9880 -->
<g id="edge5" class="edge"><title>Node0x2c1b430&#45;&gt;Node0x2be9880</title>
<path fill="none" stroke="black" d="M282.523,-173.492C313.946,-163.018 353.727,-149.758 386.688,-138.771"/>
<polygon fill="black" stroke="black" points="387.854,-142.071 396.234,-135.589 385.641,-135.431 387.854,-142.071"/>
</g>
<!-- Node0x2c39660 -->
<g id="node6" class="node"><title>Node0x2c39660</title>
<polygon fill="none" stroke="black" points="423.5,-23.5 423.5,-59.5 477.5,-59.5 477.5,-23.5 423.5,-23.5"/>
<text text-anchor="start" x="431.5" y="-37.8" font-family="Times,serif" font-size="14.00">exit:</text>
</g>
<!-- Node0x2be9880&#45;&gt;Node0x2c39660 -->
<g id="edge6" class="edge"><title>Node0x2be9880&#45;&gt;Node0x2c39660</title>
<path fill="none" stroke="black" d="M450.5,-97.4551C450.5,-89.2008 450.5,-79.2377 450.5,-70.0742"/>
<polygon fill="black" stroke="black" points="454,-69.8347 450.5,-59.8347 447,-69.8347 454,-69.8347"/>
</g>
</g>
</svg>
