<?xml version="1.0" encoding="UTF-8" standalone="no"?>
<!DOCTYPE svg PUBLIC "-//W3C//DTD SVG 1.1//EN"
 "http://www.w3.org/Graphics/SVG/1.1/DTD/svg11.dtd">
<!-- Generated by graphviz version 2.38.0 (20140413.2041)
 -->
<!-- Title: Control&#45;flow graph for function &#39;check()&#39;. Pages: 1 -->
<svg width="1016pt" height="503pt"
 viewBox="0.00 0.00 1015.50 503.00" xmlns="http://www.w3.org/2000/svg" xmlns:xlink="http://www.w3.org/1999/xlink">
<g id="graph0" class="graph" transform="scale(1 1) rotate(0) translate(4 499)">
<title>Control&#45;flow graph for function &#39;check()&#39;.</title>
<polygon fill="white" stroke="none" points="-4,4 -4,-499 1011.5,-499 1011.5,4 -4,4"/>
<text text-anchor="middle" x="503.75" y="-7.8" font-family="Times,serif" font-size="14.00">Control&#45;flow graph for function &#39;check()&#39;.</text>
<!-- Node0x37bd840 -->
<g id="node1" class="node"><title>Node0x37bd840</title>
<polygon fill="none" stroke="black" points="244,-458.5 244,-494.5 303,-494.5 303,-458.5 244,-458.5"/>
<text text-anchor="start" x="252" y="-472.8" font-family="Times,serif" font-size="14.00">entry:</text>
</g>
<!-- Node0x2bf8cf0 -->
<g id="node2" class="node"><title>Node0x2bf8cf0</title>
<polygon fill="none" stroke="black" points="0,-337.5 0,-420.5 547,-420.5 547,-337.5 0,-337.5"/>
<text text-anchor="start" x="8" y="-405.3" font-family="Times,serif" font-size="14.00">v1 = *(IntToPtrCastExpr&lt;ptr&gt;((PtrToIntCastExpr&lt;int32&gt;(&amp;(g1)) + 32)))</text>
<text text-anchor="start" x="8" y="-390.3" font-family="Times,serif" font-size="14.00"> format</text>
<text text-anchor="start" x="8" y="-375.3" font-family="Times,serif" font-size="14.00"> scanf(&quot;%2048s&quot;, &amp;(format))</text>
<text text-anchor="start" x="8" y="-360.3" font-family="Times,serif" font-size="14.00"> chars_printed = printf(BitCastExpr&lt;ptr&gt;(&amp;(format)))</text>
<text text-anchor="start" x="8" y="-345.3" font-family="Times,serif" font-size="14.00"> v2 = IntToPtrCastExpr&lt;ptr&gt;((PtrToIntCastExpr&lt;int32&gt;(&amp;(g1)) + 32))</text>
</g>
<!-- Node0x37bd840&#45;&gt;Node0x2bf8cf0 -->
<g id="edge1" class="edge"><title>Node0x37bd840&#45;&gt;Node0x2bf8cf0</title>
<path fill="none" stroke="black" d="M273.5,-458.427C273.5,-450.622 273.5,-440.921 273.5,-431.032"/>
<polygon fill="black" stroke="black" points="277,-430.73 273.5,-420.73 270,-430.73 277,-430.73"/>
</g>
<!-- Node0x2ca4b90 -->
<g id="node3" class="node"><title>Node0x2ca4b90</title>
<polygon fill="none" stroke="black" points="9,-263.5 9,-299.5 538,-299.5 538,-263.5 9,-263.5"/>
<text text-anchor="start" x="17" y="-277.8" font-family="Times,serif" font-size="14.00">if (*(IntToPtrCastExpr&lt;ptr&gt;(v1)) != *(IntToPtrCastExpr&lt;ptr&gt;(*(v2)))):</text>
</g>
<!-- Node0x2bf8cf0&#45;&gt;Node0x2ca4b90 -->
<g id="edge2" class="edge"><title>Node0x2bf8cf0&#45;&gt;Node0x2ca4b90</title>
<path fill="none" stroke="black" d="M273.5,-337.499C273.5,-328.206 273.5,-318.537 273.5,-309.946"/>
<polygon fill="black" stroke="black" points="277,-309.749 273.5,-299.749 270,-309.749 277,-309.749"/>
</g>
<!-- Node0x2c2d3d0 -->
<g id="node4" class="node"><title>Node0x2c2d3d0</title>
<polygon fill="none" stroke="black" points="145,-173.5 145,-211.5 294,-211.5 294,-173.5 145,-173.5"/>
<text text-anchor="start" x="153" y="-196.3" font-family="Times,serif" font-size="14.00">0x10550:</text>
<text text-anchor="start" x="153" y="-181.3" font-family="Times,serif" font-size="14.00"> __stack_chk_fail()</text>
</g>
<!-- Node0x2ca4b90&#45;&gt;Node0x2c2d3d0 -->
<g id="edge3" class="edge"><title>Node0x2ca4b90&#45;&gt;Node0x2c2d3d0</title>
<path fill="none" stroke="black" d="M60.3843,-263.439C44.525,-258.676 32.1246,-252.64 25.5,-245 21.1327,-239.963 21.244,-235.131 25.5,-230 39.662,-212.925 89.1125,-203.785 134.539,-198.922"/>
<polygon fill="black" stroke="black" points="135.162,-202.377 144.76,-197.89 134.459,-195.412 135.162,-202.377"/>
<text text-anchor="middle" x="267.5" y="-233.8" font-family="Times,serif" font-size="14.00">*(IntToPtrCastExpr&lt;ptr&gt;(v1)) != *(IntToPtrCastExpr&lt;ptr&gt;(*(v2)))</text>
</g>
<!-- Node0x4172ce0 -->
<g id="node5" class="node"><title>Node0x4172ce0</title>
<polygon fill="none" stroke="black" points="356,-97.5 356,-135.5 527,-135.5 527,-97.5 356,-97.5"/>
<text text-anchor="start" x="364" y="-120.3" font-family="Times,serif" font-size="14.00">0x10554:</text>
<text text-anchor="start" x="364" y="-105.3" font-family="Times,serif" font-size="14.00"> return chars_printed</text>
</g>
<!-- Node0x2ca4b90&#45;&gt;Node0x4172ce0 -->
<g id="edge4" class="edge"><title>Node0x2ca4b90&#45;&gt;Node0x4172ce0</title>
<path fill="none" stroke="black" d="M473.881,-263.494C490.144,-258.742 502.877,-252.693 509.5,-245 536.393,-213.759 500.748,-170.095 471.767,-142.826"/>
<polygon fill="black" stroke="black" points="473.953,-140.083 464.206,-135.929 469.235,-145.254 473.953,-140.083"/>
<text text-anchor="middle" x="762.5" y="-188.8" font-family="Times,serif" font-size="14.00">*(IntToPtrCastExpr&lt;ptr&gt;(v1)) == *(IntToPtrCastExpr&lt;ptr&gt;(*(v2)))</text>
</g>
<!-- Node0x2c2d3d0&#45;&gt;Node0x4172ce0 -->
<g id="edge5" class="edge"><title>Node0x2c2d3d0&#45;&gt;Node0x4172ce0</title>
<path fill="none" stroke="black" d="M273.523,-173.492C304.946,-163.018 344.727,-149.758 377.688,-138.771"/>
<polygon fill="black" stroke="black" points="378.854,-142.071 387.234,-135.589 376.641,-135.431 378.854,-142.071"/>
</g>
<!-- Node0x2c35370 -->
<g id="node6" class="node"><title>Node0x2c35370</title>
<polygon fill="none" stroke="black" points="414.5,-23.5 414.5,-59.5 468.5,-59.5 468.5,-23.5 414.5,-23.5"/>
<text text-anchor="start" x="422.5" y="-37.8" font-family="Times,serif" font-size="14.00">exit:</text>
</g>
<!-- Node0x4172ce0&#45;&gt;Node0x2c35370 -->
<g id="edge6" class="edge"><title>Node0x4172ce0&#45;&gt;Node0x2c35370</title>
<path fill="none" stroke="black" d="M441.5,-97.4551C441.5,-89.2008 441.5,-79.2377 441.5,-70.0742"/>
<polygon fill="black" stroke="black" points="445,-69.8347 441.5,-59.8347 438,-69.8347 445,-69.8347"/>
</g>
</g>
</svg>
