<?xml version="1.0" encoding="UTF-8" standalone="no"?>
<!DOCTYPE svg PUBLIC "-//W3C//DTD SVG 1.1//EN"
 "http://www.w3.org/Graphics/SVG/1.1/DTD/svg11.dtd">
<!-- Generated by graphviz version 2.38.0 (20140413.2041)
 -->
<!-- Title: Call graph of the module. Pages: 1 -->
<svg width="455pt" height="214pt"
 viewBox="0.00 0.00 454.50 214.00" xmlns="http://www.w3.org/2000/svg" xmlns:xlink="http://www.w3.org/1999/xlink">
<g id="graph0" class="graph" transform="scale(1 1) rotate(0) translate(4 210)">
<title>Call graph of the module.</title>
<polygon fill="white" stroke="none" points="-4,4 -4,-210 450.5,-210 450.5,4 -4,4"/>
<text text-anchor="middle" x="223.25" y="-7.8" font-family="Times,serif" font-size="14.00">Call graph of the module.</text>
<!-- Node_check -->
<g id="node1" class="node"><title>Node_check</title>
<polygon fill="none" stroke="black" points="92,-96.5 92,-132.5 151,-132.5 151,-96.5 92,-96.5"/>
<text text-anchor="middle" x="121.5" y="-110.8" font-family="Times,serif" font-size="14.00">check</text>
</g>
<!-- Node_printf -->
<g id="node4" class="node"><title>Node_printf</title>
<polygon fill="none" stroke="#7f7f7f" points="0,-23.5 0,-59.5 57,-59.5 57,-23.5 0,-23.5"/>
<text text-anchor="middle" x="28.5" y="-37.8" font-family="Times,serif" font-size="14.00" fill="#7f7f7f">printf</text>
</g>
<!-- Node_check&#45;&gt;Node_printf -->
<g id="edge1" class="edge"><title>Node_check&#45;&gt;Node_printf</title>
<path fill="none" stroke="black" d="M98.9873,-96.3129C86.9928,-87.1558 72.0659,-75.76 59.0405,-65.8158"/>
<polygon fill="black" stroke="black" points="60.8777,-62.8151 50.8054,-59.5288 56.63,-68.379 60.8777,-62.8151"/>
</g>
<!-- Node_scanf -->
<g id="node5" class="node"><title>Node_scanf</title>
<polygon fill="none" stroke="#7f7f7f" points="75,-23.5 75,-59.5 130,-59.5 130,-23.5 75,-23.5"/>
<text text-anchor="middle" x="102.5" y="-37.8" font-family="Times,serif" font-size="14.00" fill="#7f7f7f">scanf</text>
</g>
<!-- Node_check&#45;&gt;Node_scanf -->
<g id="edge2" class="edge"><title>Node_check&#45;&gt;Node_scanf</title>
<path fill="none" stroke="black" d="M116.901,-96.3129C114.73,-88.2023 112.09,-78.3355 109.666,-69.2766"/>
<polygon fill="black" stroke="black" points="113.023,-68.2841 107.057,-59.5288 106.261,-70.0937 113.023,-68.2841"/>
</g>
<!-- Node___stack_chk_fail -->
<g id="node10" class="node"><title>Node___stack_chk_fail</title>
<polygon fill="none" stroke="#7f7f7f" points="148.5,-23.5 148.5,-59.5 282.5,-59.5 282.5,-23.5 148.5,-23.5"/>
<text text-anchor="middle" x="215.5" y="-37.8" font-family="Times,serif" font-size="14.00" fill="#7f7f7f">__stack_chk_fail</text>
</g>
<!-- Node_check&#45;&gt;Node___stack_chk_fail -->
<g id="edge3" class="edge"><title>Node_check&#45;&gt;Node___stack_chk_fail</title>
<path fill="none" stroke="black" d="M144.255,-96.3129C156.378,-87.1558 171.466,-75.76 184.631,-65.8158"/>
<polygon fill="black" stroke="black" points="187.085,-68.3489 192.955,-59.5288 182.866,-62.7632 187.085,-68.3489"/>
</g>
<!-- Node_fight -->
<g id="node2" class="node"><title>Node_fight</title>
<polygon fill="none" stroke="black" points="188.5,-96.5 188.5,-132.5 242.5,-132.5 242.5,-96.5 188.5,-96.5"/>
<text text-anchor="middle" x="215.5" y="-110.8" font-family="Times,serif" font-size="14.00">fight</text>
</g>
<!-- Node_memset -->
<g id="node8" class="node"><title>Node_memset</title>
<polygon fill="none" stroke="#7f7f7f" points="372.5,-23.5 372.5,-59.5 446.5,-59.5 446.5,-23.5 372.5,-23.5"/>
<text text-anchor="middle" x="409.5" y="-37.8" font-family="Times,serif" font-size="14.00" fill="#7f7f7f">memset</text>
</g>
<!-- Node_fight&#45;&gt;Node_memset -->
<g id="edge4" class="edge"><title>Node_fight&#45;&gt;Node_memset</title>
<path fill="none" stroke="black" d="M242.837,-99.7167C245.737,-98.4036 248.662,-97.1391 251.5,-96 297.274,-77.625 312.448,-77.2783 362.918,-60.0897"/>
<polygon fill="black" stroke="black" points="364.101,-63.384 372.404,-56.804 361.81,-56.7695 364.101,-63.384"/>
</g>
<!-- Node_read -->
<g id="node9" class="node"><title>Node_read</title>
<polygon fill="none" stroke="#7f7f7f" points="300.5,-23.5 300.5,-59.5 354.5,-59.5 354.5,-23.5 300.5,-23.5"/>
<text text-anchor="middle" x="327.5" y="-37.8" font-family="Times,serif" font-size="14.00" fill="#7f7f7f">read</text>
</g>
<!-- Node_fight&#45;&gt;Node_read -->
<g id="edge5" class="edge"><title>Node_fight&#45;&gt;Node_read</title>
<path fill="none" stroke="black" d="M242.327,-96.4937C257.179,-87.0785 275.829,-75.2554 291.889,-65.0748"/>
<polygon fill="black" stroke="black" points="293.932,-67.9238 300.504,-59.6136 290.184,-62.0117 293.932,-67.9238"/>
</g>
<!-- Node_fight&#45;&gt;Node___stack_chk_fail -->
<g id="edge6" class="edge"><title>Node_fight&#45;&gt;Node___stack_chk_fail</title>
<path fill="none" stroke="black" d="M215.5,-96.3129C215.5,-88.2895 215.5,-78.5475 215.5,-69.5691"/>
<polygon fill="black" stroke="black" points="219,-69.5288 215.5,-59.5288 212,-69.5289 219,-69.5288"/>
</g>
<!-- Node_main -->
<g id="node3" class="node"><title>Node_main</title>
<polygon fill="none" stroke="black" points="188.5,-169.5 188.5,-205.5 242.5,-205.5 242.5,-169.5 188.5,-169.5"/>
<text text-anchor="middle" x="215.5" y="-183.8" font-family="Times,serif" font-size="14.00">main</text>
</g>
<!-- Node_main&#45;&gt;Node_check -->
<g id="edge7" class="edge"><title>Node_main&#45;&gt;Node_check</title>
<path fill="none" stroke="black" d="M192.745,-169.313C180.622,-160.156 165.534,-148.76 152.369,-138.816"/>
<polygon fill="black" stroke="black" points="154.134,-135.763 144.045,-132.529 149.915,-141.349 154.134,-135.763"/>
</g>
<!-- Node_main&#45;&gt;Node_fight -->
<g id="edge8" class="edge"><title>Node_main&#45;&gt;Node_fight</title>
<path fill="none" stroke="black" d="M215.5,-169.313C215.5,-161.289 215.5,-151.547 215.5,-142.569"/>
<polygon fill="black" stroke="black" points="219,-142.529 215.5,-132.529 212,-142.529 219,-142.529"/>
</g>
<!-- Node_main&#45;&gt;Node_printf -->
<g id="edge9" class="edge"><title>Node_main&#45;&gt;Node_printf</title>
<path fill="none" stroke="black" d="M188.332,-181.018C159.377,-174.027 113.517,-159.533 82.5,-133 62.3994,-115.805 47.7796,-89.1683 38.861,-69.2378"/>
<polygon fill="black" stroke="black" points="41.9731,-67.6129 34.8299,-59.7882 35.5344,-70.3596 41.9731,-67.6129"/>
</g>
<!-- Node_puts -->
<g id="node6" class="node"><title>Node_puts</title>
<polygon fill="none" stroke="#7f7f7f" points="260.5,-96.5 260.5,-132.5 314.5,-132.5 314.5,-96.5 260.5,-96.5"/>
<text text-anchor="middle" x="287.5" y="-110.8" font-family="Times,serif" font-size="14.00" fill="#7f7f7f">puts</text>
</g>
<!-- Node_main&#45;&gt;Node_puts -->
<g id="edge10" class="edge"><title>Node_main&#45;&gt;Node_puts</title>
<path fill="none" stroke="black" d="M232.929,-169.313C241.95,-160.417 253.113,-149.409 262.988,-139.672"/>
<polygon fill="black" stroke="black" points="265.568,-142.042 270.231,-132.529 260.653,-137.058 265.568,-142.042"/>
</g>
<!-- Node_setbuf -->
<g id="node7" class="node"><title>Node_setbuf</title>
<polygon fill="none" stroke="#7f7f7f" points="332.5,-96.5 332.5,-132.5 394.5,-132.5 394.5,-96.5 332.5,-96.5"/>
<text text-anchor="middle" x="363.5" y="-110.8" font-family="Times,serif" font-size="14.00" fill="#7f7f7f">setbuf</text>
</g>
<!-- Node_main&#45;&gt;Node_setbuf -->
<g id="edge11" class="edge"><title>Node_main&#45;&gt;Node_setbuf</title>
<path fill="none" stroke="black" d="M242.645,-173.478C265.24,-162.638 297.733,-147.05 323.339,-134.767"/>
<polygon fill="black" stroke="black" points="324.927,-137.887 332.429,-130.406 321.899,-131.575 324.927,-137.887"/>
</g>
</g>
</svg>
